<svg id="ePIKUa5Jc3A1" xmlns="http://www.w3.org/2000/svg" xmlns:xlink="http://www.w3.org/1999/xlink" viewBox="0 0 300 300" shape-rendering="geometricPrecision" text-rendering="geometricPrecision" project-id="ec243a3e4c5e4b1e83a702e1dc120680" export-id="c73ec3c7d296434b87ca444e0d90be60" cached="false"><ellipse rx="142.5" ry="142.5" transform="translate(150 150)" fill="#ffbebe" stroke="#ff4b4b" stroke-width="12"/><g transform="matrix(1.538461 0 0 1.538461 -69.230692 -86.538379)"><path d="M172.5,105c4.14214,0,7.5,3.35786,7.5,7.5v75c0,4.14214-3.35786,7.5-7.5,7.5h-37.5v7.5h-15c-8.28427,0-15-6.71573-15-15v-67.5c0-8.28427,6.71573-15,15-15h52.5Z" fill="#ff4b4b"/><path d="M97.66952,59.33934c0-4.14214,3.35786-7.5,7.5-7.5h45c4.14214,0,7.5,3.35786,7.5,7.5v75c0,4.14214-3.35786,7.5-7.5,7.5h-45c-4.14214,0-7.5-3.35786-7.5-7.5v-75Z" transform="translate(18.396998 57.094143)" fill="#fff"/><path d="M165,112.5c4.14214,0,7.5,3.35786,7.5,7.5v75c0,4.14214-3.35786,7.5-7.5,7.5h-45c-4.14214,0-7.5-3.35786-7.5-7.5v-82.5h52.5Z" fill="#ff4b4b"/></g></svg>
