<svg id="e1anmylvpBQ1" xmlns="http://www.w3.org/2000/svg" xmlns:xlink="http://www.w3.org/1999/xlink" viewBox="0 0 300 300" shape-rendering="geometricPrecision" text-rendering="geometricPrecision" project-id="f413a6777400475ba1c1fc00a14e8ca4" export-id="6ffe3365bf344367b82daec461ee36a6" cached="false"><ellipse rx="142.5" ry="142.5" transform="translate(150 150)" fill="#ffbebe" stroke="#ff4b4b" stroke-width="12"/><path d="M111.87749,108.28457c9.83849-5.68025,21.55704-5.15442,30.62251.36286v-11.88612c0-4.14214,3.35786-7.5,7.5-7.5c3.46954,0,6.38883,2.35591,7.24541,5.55527c1.34568-5.00041,5.24677-9.16711,10.60843-10.60376c5.36294-1.43699,10.82606.22207,14.49168,3.88154-1.34478,5.002-5.24646,9.17036-10.60939,10.60735-5.36166,1.43665-10.82346-.22127-14.48905-3.87892.16498.61836.25293,1.26817.25293,1.93852v11.88613c9.06547-5.51728,20.78402-6.04312,30.62251-.36287l-.00001-.00001c14.34877,8.28428,19.26502,26.63199,10.98076,40.98076l-22.5,38.97114c-4.14213,7.17439-13.31599,9.63252-20.49038,5.49038l-6.11288-3.52928-6.11288,3.52927c-7.17439,4.14214-16.34825,1.68401-20.49038-5.49038l-22.5-38.97114c-8.28427-14.34878-3.36802-32.69649,10.98076-40.98076l-.00002.00002Z" transform="matrix(1.338806 0 0 1.338806 -50.820915 -37.056121)" fill="#ff4b4b" stroke-width="0"/><ellipse rx="10" ry="10" transform="matrix(-1 0 0 1 106.175211 132.211272)" fill="#fff" stroke-width="0"/></svg>
