<svg id="ez1yfKl3qpv1" xmlns="http://www.w3.org/2000/svg" xmlns:xlink="http://www.w3.org/1999/xlink" viewBox="0 0 300 300" shape-rendering="geometricPrecision" text-rendering="geometricPrecision" project-id="b21bba015cfe4742bf08f2e812629363" export-id="8e3efa1f83834acdb74cbc50e1ae62de" cached="false"><ellipse rx="142.5" ry="142.5" transform="translate(150 150)" fill="#dcffdc" stroke="#55bd2f" stroke-width="12"/><g transform="matrix(1.282273 0 0 1.282272 -42.34094 -42.645359)"><path d="M45.58397,227.93754h25.04469v16.69646h-.00001c0,0,0,0,0,0c0,4.6106-3.73763,8.34823-8.34823,8.34823c0,0-.00001,0-.00001,0h-8.34823c-4.6106,0-8.34823-3.73763-8.34823-8.34823h.00002c0-.00275,0-.00551,0-.00826v-16.6882Z" transform="translate(121.112485 -44.069547)" fill="#17810d" stroke-width="0"/><path d="M45.58397,227.93754h25.04469v16.69646h-.00001c0,0,0,0,0,0c0,4.6106-3.73763,8.34823-8.34823,8.34823c0,0-.00001,0-.00001,0h-8.34823c-4.6106,0-8.34823-3.73763-8.34823-8.34823h.00002c0-.00275,0-.00551,0-.00826v-16.6882Z" transform="translate(62.674912 -44.069547)" fill="#17810d" stroke-width="0"/><path d="M200.08938,183.39292c0,9.2212-7.47526,16.69646-16.69646,16.69646h-66.78583c-9.2212,0-16.69646-7.47526-16.69646-16.69646v-54.26351h-.00001l-.00002-20.8706h.00003c0-9.2212,7.47526-16.69645,16.69646-16.69646h66.78581c9.2212,0,16.69646,7.47526,16.69646,16.69646c0,.00389,0,.00779,0,.01168l.00002,20.85892v54.26351ZM87.38825,108.25883h12.52234v8.34823h-8.34823v12.52234c0,2.3053-1.8688,4.1741-4.1741,4.17411h-4.15812c-.00533.00002-.01066.00003-.016.00003-2.3053,0-4.17412-1.86881-4.17412-4.17412v-16.69648c0-2.3053,1.86881-4.17412,4.17412-4.17412.00533,0,.01067.00001.016.00003h4.14505c.00435-.00001.00871-.00002.01306-.00002Zm125.23654.00002h4.14505c.00533-.00002.01067-.00003.016-.00003c2.30531,0,4.17412,1.86882,4.17412,4.17412v16.69648c0,2.30531-1.86882,4.17412-4.17412,4.17412-.00534,0-.01067-.00001-.016-.00003h-4.15812c-2.3053-.00001-4.1741-1.86881-4.1741-4.17411v-12.52234h-8.34823v-8.34823h12.52234c.00435,0,.00871.00001.01306.00002Z" fill="#55bd2f" stroke-width="0"/><path d="M116.60708,124.95531c0-4.6106,3.73763-8.34823,8.34823-8.34823.00275,0,.00551,0,.00826,0h50.07286c.00275,0,.00551,0,.00826,0c4.6106,0,8.34823,3.73763,8.34823,8.34823v16.69646c0,4.6106-3.73763,8.34823-8.34823,8.34823c0,0,0,0,0,0h-50.08937c0,0,0,0,0,0-4.6106,0-8.34823-3.73763-8.34823-8.34823c0-.00195,0-16.69451,0-16.69646h-.00001Z" transform="matrix(1.25 0 0 1.250001 -37.500005 -24.97779)" fill="#fff" stroke-width="0"/><path d="M108.25886,183.86799c0-4.6106,3.73763-8.34823,8.34823-8.34823c0,0,0,0,0,0h8.34823c.00001,0,.00001,0,.00002,0c4.6106,0,8.34823,3.73763,8.34823,8.34823s-3.73763,8.34823-8.34823,8.34823c-.00001,0-.00001,0-.00002,0h-8.34823c0,0,0,0,0,0-4.6106,0-8.34823-3.73763-8.34823-8.34823Z" fill="#fff" stroke-width="0"/><path d="M191.74115,183.86799c0,4.6106-3.73763,8.34823-8.34823,8.34823h-8.34823c-4.6106,0-8.34823-3.73763-8.34823-8.34823s3.73763-8.34823,8.34823-8.34823h8.34823c4.6106,0,8.34823,3.73763,8.34823,8.34823Z" fill="#fff" stroke-width="0"/><path d="M108.25886,91.56236c0-4.6106,3.73763-8.34823,8.34823-8.34823.00001,0,2.08707,0,4.17413,0c.00001,0,56.35053,0,58.43759,0s4.17411,0,4.17411,0c4.6106,0,8.34823,3.73763,8.34823,8.34823s-3.73763,8.34823-8.34823,8.34823c-.00001,0-.00001,0-.00002,0s-58.43757,0-58.43758,0h-8.34823c-4.6106,0-8.34823-3.73763-8.34823-8.34823Z" transform="translate(0.000002 16.696456)" fill="#fff" stroke-width="0"/><path d="M45.58397,227.93754h25.04469v16.69646h-.00001c0,0,0,0,0,0c0,4.6106-3.73763,8.34823-8.34823,8.34823c0,0-.00001,0-.00001,0h-8.34823c-4.6106,0-8.34823-3.73763-8.34823-8.34823h.00002c0-.00275,0-.00551,0-.00826v-16.6882Z" transform="matrix(1 0 0 -1 91.893707 420.15376)" fill="#17810d" stroke-width="0"/></g></svg>
