<svg id="eW4JIQO9kCX1" xmlns="http://www.w3.org/2000/svg" xmlns:xlink="http://www.w3.org/1999/xlink" viewBox="0 0 300 300" shape-rendering="geometricPrecision" text-rendering="geometricPrecision" project-id="fa52a1dfa2974c1791f3e0a018784c84" export-id="6526334c01564c468e7deb82539feb48" cached="false"><ellipse rx="142.5" ry="142.5" transform="translate(150 150)" fill="#bcd3ff" stroke="#4b87ff" stroke-width="12"/><path d="M105.45266,150c0-1.99806.13154-3.9654.38644-5.89382l10.1943-3.62524c.7655-2.73722,1.85298-5.34001,3.21903-7.76494l-4.64511-9.77205c2.39858-3.1329,5.20373-5.93805,8.33663-8.33663l9.77205,4.64511c2.42493-1.36605,5.02771-2.45353,7.76494-3.21903l3.62524-10.1943c1.92843-.2549,3.89576-.38644,5.89382-.38644s3.9654.13154,5.89382.38644l3.62524,10.1943c2.73722.7655,5.34001,1.85298,7.76494,3.21903l9.77205-4.64511c3.1329,2.39858,5.93805,5.20373,8.33663,8.33663l-4.64511,9.77205c1.36605,2.42493,2.45353,5.02771,3.21903,7.76494l10.1943,3.62524c.2549,1.92843.38644,3.89576.38644,5.89382s-.13154,3.9654-.38644,5.89382l-10.1943,3.62524c-.7655,2.73722-1.85298,5.34001-3.21903,7.76494l4.64511,9.77205c-2.39858,3.1329-5.20373,5.93805-8.33663,8.33663l-9.77205-4.64511c-2.42493,1.36605-5.02771,2.45353-7.76494,3.21903l-3.62524,10.1943c-1.92843.2549-3.89576.38644-5.89382.38644s-3.9654-.13154-5.89382-.38644l-3.62524-10.1943c-2.73722-.7655-5.34001-1.85298-7.76494-3.21903l-9.77205,4.64511c-3.1329-2.39858-5.93805-5.20373-8.33663-8.33663l4.64511-9.77205c-1.36605-2.42493-2.45353-5.02771-3.21903-7.76494l-10.1943-3.62524c-.2549-1.92843-.38644-3.89576-.38644-5.89382ZM150,133.59215l-12.82697,5.3131-5.3131,12.82697l5.3131,12.82697L150,169.87229l12.82697-5.3131l5.3131-12.82697-5.3131-12.82697L150,133.59215Z" transform="matrix(1.683603 0 0 1.683603 -102.54045 -102.54045)" fill="#4b87ff" stroke-width="8" stroke-linecap="round" stroke-linejoin="round"/></svg>
