<svg id="ebEw8gFx4Sk1" xmlns="http://www.w3.org/2000/svg" xmlns:xlink="http://www.w3.org/1999/xlink" viewBox="0 0 300 300" shape-rendering="geometricPrecision" text-rendering="geometricPrecision" project-id="5ae8648f059b4da6a7386abcf91cb4cd" export-id="e32fd510424c47eba18cc8ca105369ab" cached="false"><ellipse rx="142.5" ry="142.5" transform="translate(150 150)" fill="#bcd3ff" stroke="#4b87ff" stroke-width="12"/><path d="M74.99996,150c0-3.36394.22146-6.67616.65061-9.92285l17.16315-6.10346c1.2888-4.60839,3.11968-8.99046,5.41957-13.07308l-7.82052-16.45225c4.03826-5.27456,8.76102-9.99732,14.03558-14.03558L120.9006,98.2333c4.08262-2.29989,8.46467-4.13077,13.07308-5.41957l6.10346-17.16315c3.24671-.42915,6.55891-.65061,9.92285-.65061s6.67616.22146,9.92285.65061l6.10346,17.16315c4.60839,1.2888,8.99046,3.11968,13.07308,5.41957l16.45225-7.82052c5.27456,4.03826,9.99732,8.76102,14.03558,14.03558l-7.82052,16.45225c2.29989,4.08262,4.13077,8.46467,5.41957,13.07308l17.16315,6.10346c.42915,3.24671.65061,6.55891.65061,9.92285s-.22146,6.67616-.65061,9.92285l-17.16315,6.10346c-1.2888,4.60839-3.11968,8.99046-5.41957,13.07308l7.82052,16.45225c-4.03826,5.27456-8.76102,9.99732-14.03558,14.03558l-16.45225-7.82052c-4.08262,2.29989-8.46467,4.13077-13.07308,5.41957l-6.10346,17.16315c-3.24671.42915-6.55891.65061-9.92285.65061s-6.67616-.22146-9.92285-.65061l-6.10346-17.16315c-4.60839-1.2888-8.99046-3.11968-13.07308-5.41957l-16.45225,7.82052c-5.27456-4.03826-9.99732-8.76102-14.03558-14.03558l7.82052-16.45225c-2.29989-4.08262-4.13077-8.46467-5.41957-13.07308l-17.16315-6.10346c-.42915-3.24671-.65061-6.55891-.65061-9.92285ZM150,122.37569l-21.59553,8.94515-8.94515,21.59553l8.94515,21.59553L150,183.45705l11.35088-4.70168c-1.76152-2.10586-2.82224-4.82102-2.82224-7.78459c0-6.69415,5.41201-12.12083,12.08807-12.12083c2.453,0,4.73534.73264,6.64127,1.99159l3.2827-7.92516-8.94515-21.59553L150,122.37569Z" fill="#4b87ff" stroke-width="8" stroke-linecap="round" stroke-linejoin="round"/><path d="M129.80849,194.90607l.00003.00003-33.76081,9.04618l9.04617-33.7608l80.32243-80.32243c3.41238-3.41238,8.94492-3.41238,12.3573,0c.00215.00215.0043.0043.00645.00645l12.35085,12.35085c3.41238,3.41238,3.41238,8.94492,0,12.3573l-80.32242,80.32242Z" transform="matrix(1.285982 0 0 1.285982 -48.515688 -37.278877)" paint-order="stroke fill markers" fill="#4b87ff" stroke="#bcd3ff" stroke-width="12" stroke-linecap="round" stroke-linejoin="round"/></svg>
