<svg id="eUn2egVfCGr1" xmlns="http://www.w3.org/2000/svg" xmlns:xlink="http://www.w3.org/1999/xlink" viewBox="0 0 300 300" shape-rendering="geometricPrecision" text-rendering="geometricPrecision" project-id="cf8d4d9b66664c67a78b923b64bddb71" export-id="cf3ffc67c12241b1b2d2daf31c98d4d7" cached="false"><ellipse rx="142.5" ry="142.5" transform="translate(150 150)" fill="#bcd3ff" stroke="#4b87ff" stroke-width="12"/><g transform="matrix(1.035279 0 0 1.035279 -11.859125 -32.871326)"><rect width="127.721807" height="92.027035" rx="0" ry="0" transform="translate(92.48258 107.987318)" fill="#fff" stroke-width="0"/><path d="M120.12136,235.50059c0-5.00123,4.0543-9.05553,9.05553-9.05553h18.11105v-18.11105h18.11106v18.11105h18.11106c5.00123,0,9.05552,4.0543,9.05552,9.05553h.00001v18.11106h-.00001c0,5.00123-4.0543,9.05553-9.05552,9.05553c0,0-54.33317,0-54.33318,0-5.00123,0-9.05553-4.0543-9.05553-9.05553c0-.00351,0-.00703.00001-.01054c0-.49269,0-18.09769,0-18.10051v-.00001Z" transform="translate(-0.00001 -9.055529)" fill="#4b87ff" stroke-width="0"/><path d="M122.83341,45.27765c0-.00379,0-.00759.00001-.01138v-9.03276c0-.00379-.00001-.00759-.00001-.01138c0-5.00123,4.0543-9.05553,9.05553-9.05553.00248,0,.00497,0,.00745,0h54.32572c5.00123,0,9.05553,4.0543,9.05553,9.05553v9.05553h-.00001c0,5.00123-4.05429,9.05551-9.05552,9.05552v.00001h-54.33317v-.00001c-5.00123,0-9.05553-4.0543-9.05553-9.05553Z" transform="translate(-2.71206 190.22294)" fill="#3f52dd" stroke-width="0"/><path d="M228.7877,117.77872v72.44423c0,10.00246-8.1086,18.11106-18.11106,18.11106h-108.66634c-10.00246,0-18.11106-8.1086-18.11106-18.11106v-72.44423c0-10.00246,8.1086-18.11106,18.11106-18.11106h108.66634c10.00246,0,18.11106,8.1086,18.11106,18.11106Zm-117.72187,0c-5.00123,0-9.05552,4.05429-9.05553,9.05552c0,.00202,0,54.33115,0,54.33318c0,5.00123,4.0543,9.05553,9.05553,9.05553v.00001h90.55529v-.00001c5.00123,0,9.05552-4.0543,9.05552-9.05553c0-.00202,0-54.31976,0-54.32179.00001-.00379.00001-.00759.00001-.01138c0-5.00123-4.0543-9.05553-9.05553-9.05553v-.00001h-90.55529v.00001Z" fill="#4b87ff" stroke-width="0"/><path d="M156.34347,235.5006c-5.00123,0-9.05553-4.0543-9.05553-9.05553v-18.11106h18.11106v18.11106c0,5.00123-4.0543,9.05553-9.05553,9.05553Z" fill="#4b87ff" stroke-width="0"/></g></svg>
