<svg id="ejbUrecAng91" xmlns="http://www.w3.org/2000/svg" xmlns:xlink="http://www.w3.org/1999/xlink" viewBox="0 0 300 300" shape-rendering="geometricPrecision" text-rendering="geometricPrecision" project-id="2a5258565f2e40bf8cf887c687d38475" export-id="93f56e98949e4daba3e5b58717a67711" cached="false"><ellipse rx="142.5" ry="142.5" transform="translate(150 150)" fill="#bcd3ff" stroke="#4b87ff" stroke-width="12"/><polygon points="-11.731571,-26.324886 15.344007,0.750771 9.928889,11.231167 -19.85424,-21.992781" transform="matrix(3.197628 0 0 3.197619 168.076812 167.035693)" fill="#fff" stroke-width="0"/><path d="M92.57359,192.42641c0-.0032,0-.00639,0-.00959v-84.84323c0-2.03567.40551-3.97664,1.14016-5.74652.72147-1.74204,1.78535-3.3757,3.19163-4.79811.04096-.04143.08215-.08263.12359-.12359c1.42242-1.40628,3.05608-2.47015,4.79811-3.19163c1.76988-.73465,3.71084-1.14016,5.74652-1.14016c2.03461,0,3.9746.40508,5.74373,1.139c1.76844.73199,3.42526,1.81679,4.86288,3.2544l9.28078,9.28078-7.95495,7.95495c-.73223.73223-.73223,1.91942,0,2.65165s1.91942.73223,2.65165,0c.00065-.00065,7.9543-7.9543,7.95495-7.95495l2.65165,2.65165-5.3033,5.3033c-.73223.73223-.73223,1.91942,0,2.65165s1.91942.73223,2.65165,0c.00065-.00065,5.30265-5.30265,5.3033-5.3033l2.65165,2.65165-5.3033,5.3033c-.73223.73223-.73223,1.91942,0,2.65165s1.91942.73223,2.65165,0c.00065-.00065,5.30265-5.30265,5.3033-5.3033l2.65165,2.65165-5.3033,5.3033c-.73223.73223-.73223,1.91942,0,2.65165s1.91942.73223,2.65165,0c.00065-.00065,5.30265-5.30265,5.3033-5.3033l2.65165,2.65165-7.95495,7.95495c-.73223.73223-.73223,1.91942,0,2.65165s1.91942.73223,2.65165,0c.00065-.00065,7.9543-7.9543,7.95495-7.95495l2.65165,2.65165-5.3033,5.3033c-.73223.73223-.73223,1.91942,0,2.65165s1.91942.73223,2.65165,0c.00065-.00065,5.30265-5.30265,5.3033-5.3033l2.65165,2.65165-5.3033,5.3033c-.73223.73223-.73223,1.91942,0,2.65165s1.91942.73223,2.65165,0c.00065-.00065,5.30265-5.30265,5.3033-5.3033l2.65165,2.65165-5.3033,5.3033c-.73223.73223-.73223,1.91942,0,2.65165s1.91942.73223,2.65165,0c.00065-.00065,5.30265-5.30265,5.3033-5.3033l2.65165,2.65165-7.95495,7.95495c-.73223.73223-.73223,1.91942,0,2.65165s1.91942.73223,2.65165,0c.00065-.00065,7.9543-7.9543,7.95495-7.95495l2.65165,2.65165-5.3033,5.3033c-.73223.73223-.73223,1.91942,0,2.65165s1.91942.73223,2.65165,0c.00065-.00065,5.30265-5.30265,5.3033-5.3033l2.65165,2.65165-5.3033,5.3033c-.73223.73223-.73223,1.91942,0,2.65165s1.91942.73223,2.65165,0c.00065-.00065,5.30265-5.30265,5.3033-5.3033l2.65165,2.65165-5.3033,5.3033c-.73223.73223-.73223,1.91942,0,2.65165s1.91942.73223,2.65165,0c.00065-.00065,5.30265-5.30265,5.3033-5.3033l2.65165,2.65165-7.95495,7.95495c-.73223.73223-.73223,1.91942,0,2.65165s1.91942.73223,2.65165,0c.00065-.00065,7.9543-7.9543,7.95495-7.95495l9.27096,9.27096c.03072.03067.06131.06146.09177.09239c1.39238,1.4137,2.44751,3.03498,3.16539,4.76328.73839,1.77371,1.14608,3.71963,1.14608,5.76077c0,2.04564-.40949,3.99564-1.15097,5.7725-.70391,1.6906-1.7307,3.27851-3.08037,4.66955-.10696.11028-.2156.21893-.32588.3259-1.39294,1.3517-2.98332,2.3796-4.67656,3.0837-1.77517.73983-3.72299,1.14835-5.76621,1.14835c0,0-84.85281,0-84.85282,0-8.28427,0-15-6.71573-15-15h-.00004Zm30.00001-14.99999h33.63962L122.5736,143.7868v33.63962Z" transform="matrix(1.306019 0 0 1.306019 -35.902868 -55.902854)" fill="#4b87ff" stroke-width="0"/></svg>
