<svg id="eW3SEfuvkcQ1" xmlns="http://www.w3.org/2000/svg" xmlns:xlink="http://www.w3.org/1999/xlink" viewBox="0 0 300 300" shape-rendering="geometricPrecision" text-rendering="geometricPrecision" project-id="f3d9334854e64801b35f81e153477dec" export-id="25a0fdfab0c4406f83cdd4535cd10a59" cached="false"><ellipse rx="142.5" ry="142.5" transform="translate(150 150)" fill="#dcffdc" stroke="#55bd2f" stroke-width="12"/><g transform="matrix(1.666667 0 0 1.666667 -100.00005 -87.500047)"><path d="M180,150h1.875c2.07107,0,3.75,1.67893,3.75,3.75s-1.67893,3.75-3.75,3.75h-63.75c-2.07107,0-3.75-1.67893-3.75-3.75s1.67893-3.75,3.75-3.75h1.875c0-15.93882,12.42988-28.97449,28.125-29.94236v-.05764c-2.07107,0-3.75-1.67893-3.75-3.75s1.67893-3.75,3.75-3.75h3.75c2.07107,0,3.75,1.67893,3.75,3.75s-1.67893,3.75-3.75,3.75v.05764C167.57012,121.02551,180,134.06118,180,150Z" fill="#55bd2f" stroke-width="0"/><path d="M105,172.5c0-4.14214,3.35786-7.5,7.5-7.5h75c4.14214,0,7.5,3.35786,7.5,7.5s-3.35786,7.5-7.5,7.5h-75c-4.14214,0-7.5-3.35786-7.5-7.5Z" transform="translate(0 -7.5)" fill="#17810d" stroke-width="0"/></g><ellipse rx="4.543872" ry="4.543872" transform="matrix(1.375479 0 0 1.375479 125.229427 136.728597)" fill="#fff" stroke-width="0"/></svg>
